<svg width="587" height="346" viewBox="0 0 587 346" fill="none" xmlns="http://www.w3.org/2000/svg">
<path d="M387.076 344.904H188.583C185.781 344.904 183.006 344.352 180.418 343.279C177.829 342.206 175.477 340.633 173.496 338.65C171.514 336.667 169.943 334.313 168.87 331.722C167.798 329.132 167.246 326.355 167.246 323.55V142.074C167.247 139.121 168.025 136.221 169.503 133.666C170.98 131.11 173.105 128.99 175.662 127.518L279.479 67.8125C282.022 66.3511 284.903 65.582 287.835 65.582C290.767 65.582 293.648 66.3511 296.19 67.8125L400.007 127.518C402.565 128.989 404.69 131.109 406.167 133.665C407.645 136.22 408.422 139.121 408.421 142.074V323.55C408.421 326.355 407.869 329.133 406.796 331.724C405.723 334.316 404.15 336.67 402.168 338.653C400.186 340.636 397.833 342.209 395.243 343.281C392.654 344.354 389.879 344.905 387.076 344.904Z" fill="#8FCC14"/>
<path d="M301.425 130.756C309.71 122.464 309.71 109.019 301.426 100.726C293.141 92.4339 279.708 92.434 271.423 100.726C263.138 109.019 263.138 122.464 271.423 130.756C279.708 139.048 293.141 139.048 301.425 130.756Z" fill="#59800D"/>
<path d="M286.426 94.5068V136.978" stroke="#8FCC14" stroke-width="8.12" stroke-miterlimit="10"/>
<path d="M264.797 115.741H307.227" stroke="#8FCC14" stroke-width="8.12" stroke-miterlimit="10"/>
<path d="M288.014 160.245C300.523 160.245 312.519 165.219 321.364 174.072C330.209 182.925 335.178 194.932 335.178 207.452V344.807H240.848V207.454C240.848 201.255 242.068 195.117 244.438 189.389C246.808 183.662 250.282 178.458 254.662 174.074C259.041 169.691 264.24 166.214 269.963 163.841C275.685 161.469 281.818 160.248 288.011 160.248L288.014 160.245Z" fill="#59800D"/>
<path d="M302.232 10.4569L289.271 23.4322L276.308 10.4569C275.738 9.88897 275.287 9.21419 274.979 8.47122C274.67 7.72825 274.512 6.9317 274.512 6.12724C274.512 5.32277 274.67 4.52622 274.979 3.78325C275.287 3.04028 275.738 2.3655 276.308 1.7976V1.7976C276.875 1.22814 277.549 0.776337 278.292 0.46807C279.034 0.159803 279.83 0.00113136 280.633 0.00113136C281.437 0.00113136 282.233 0.159803 282.975 0.46807C283.717 0.776337 284.392 1.22814 284.959 1.7976L289.285 6.12724L293.611 1.7976C294.178 1.22782 294.852 0.775732 295.594 0.467261C296.337 0.15879 297.133 0 297.936 0C298.74 0 299.536 0.15879 300.278 0.467261C301.02 0.775732 301.695 1.22782 302.262 1.7976V1.7976C302.829 2.36746 303.279 3.04379 303.584 3.78782C303.89 4.53185 304.046 5.32895 304.043 6.13341C304.04 6.93788 303.879 7.73388 303.568 8.4758C303.257 9.21771 302.803 9.89093 302.232 10.4569V10.4569Z" fill="#CC1814"/>
<path d="M74.9553 344.791C90.5855 344.791 103.256 327.184 103.256 305.464C103.256 283.745 90.5855 266.138 74.9553 266.138C59.3251 266.138 46.6543 283.745 46.6543 305.464C46.6543 327.184 59.3251 344.791 74.9553 344.791Z" fill="#59800D"/>
<path d="M121.525 344.904H0C0 330.833 11.5821 319.44 25.8677 319.44C28.8447 319.438 31.8004 319.942 34.6084 320.931C42.3839 304.893 57.7131 293.979 75.3566 293.979C100.854 293.979 121.525 316.778 121.525 344.904Z" fill="#8FCC14"/>
<path d="M566.692 345.075H449.85C449.85 329.583 461.862 316.489 478.351 312.24C485.942 287.645 501.801 270.722 520.134 270.722C545.848 270.722 566.692 304.011 566.692 345.075Z" fill="#59800D"/>
<path d="M34.7266 299.792V343.243" stroke="#CCA414" stroke-width="2" stroke-miterlimit="10" stroke-linecap="round"/>
<path d="M27.4102 314.819L34.726 324.315" stroke="#CCA414" stroke-width="2" stroke-miterlimit="10" stroke-linecap="round"/>
<path d="M34.7266 343.243L48.0795 330.376" stroke="#CCA414" stroke-width="2" stroke-miterlimit="10" stroke-linecap="round"/>
<path d="M34.726 297.019C38.7665 297.019 42.0419 293.741 42.0419 289.696C42.0419 285.652 38.7665 282.374 34.726 282.374C30.6856 282.374 27.4102 285.652 27.4102 289.696C27.4102 293.741 30.6856 297.019 34.726 297.019Z" fill="#59800D"/>
<path d="M34.7266 282.374V297.019" stroke="#CCA414" stroke-miterlimit="10" stroke-linecap="round"/>
<path d="M42.0419 289.696H27.4102" stroke="#CCA414" stroke-miterlimit="10" stroke-linecap="round"/>
<path d="M39.8993 284.52L29.5527 294.875" stroke="#CCA414" stroke-miterlimit="10" stroke-linecap="round"/>
<path d="M39.8993 294.875L29.5527 284.52" stroke="#CCA414" stroke-miterlimit="10" stroke-linecap="round"/>
<path d="M34.7258 292.405C36.2204 292.405 37.4321 291.192 37.4321 289.696C37.4321 288.2 36.2204 286.987 34.7258 286.987C33.2312 286.987 32.0195 288.2 32.0195 289.696C32.0195 291.192 33.2312 292.405 34.7258 292.405Z" fill="white"/>
<path d="M34.7283 291.16C35.536 291.16 36.1909 290.505 36.1909 289.696C36.1909 288.888 35.536 288.232 34.7283 288.232C33.9205 288.232 33.2656 288.888 33.2656 289.696C33.2656 290.505 33.9205 291.16 34.7283 291.16Z" fill="#CCA414"/>
<path d="M21.2319 315.401C25.2723 315.401 28.5477 312.122 28.5477 308.078C28.5477 304.034 25.2723 300.756 21.2319 300.756C17.1914 300.756 13.916 304.034 13.916 308.078C13.916 312.122 17.1914 315.401 21.2319 315.401Z" fill="#59800D"/>
<path d="M21.2305 300.756V315.401" stroke="#CCA414" stroke-miterlimit="10" stroke-linecap="round"/>
<path d="M28.5477 308.078H13.916" stroke="#CCA414" stroke-miterlimit="10" stroke-linecap="round"/>
<path d="M26.4012 302.557L16.0547 312.91" stroke="#CCA414" stroke-miterlimit="10" stroke-linecap="round"/>
<path d="M26.4012 313.255L16.0547 302.901" stroke="#CCA414" stroke-miterlimit="10" stroke-linecap="round"/>
<path d="M21.2317 310.787C22.7263 310.787 23.9379 309.574 23.9379 308.078C23.9379 306.582 22.7263 305.369 21.2317 305.369C19.737 305.369 18.5254 306.582 18.5254 308.078C18.5254 309.574 19.737 310.787 21.2317 310.787Z" fill="white"/>
<path d="M21.2322 309.542C22.04 309.542 22.6948 308.887 22.6948 308.078C22.6948 307.27 22.04 306.614 21.2322 306.614C20.4244 306.614 19.7695 307.27 19.7695 308.078C19.7695 308.887 20.4244 309.542 21.2322 309.542Z" fill="#CCA414"/>
<path d="M55.06 330.627C59.1004 330.627 62.3759 327.349 62.3759 323.305C62.3759 319.261 59.1004 315.982 55.06 315.982C51.0196 315.982 47.7441 319.261 47.7441 323.305C47.7441 327.349 51.0196 330.627 55.06 330.627Z" fill="white"/>
<path d="M55.0625 315.982V330.627" stroke="#CCA414" stroke-miterlimit="10" stroke-linecap="round"/>
<path d="M62.3759 323.305H47.7441" stroke="#CCA414" stroke-miterlimit="10" stroke-linecap="round"/>
<path d="M60.2352 318.126L49.8887 328.482" stroke="#CCA414" stroke-miterlimit="10" stroke-linecap="round"/>
<path d="M60.2352 328.482L49.8887 318.126" stroke="#CCA414" stroke-miterlimit="10" stroke-linecap="round"/>
<path d="M55.0617 326.014C56.5564 326.014 57.768 324.801 57.768 323.305C57.768 321.809 56.5564 320.597 55.0617 320.597C53.5671 320.597 52.3555 321.809 52.3555 323.305C52.3555 324.801 53.5671 326.014 55.0617 326.014Z" fill="white"/>
<path d="M55.0603 324.769C55.8681 324.769 56.5229 324.113 56.5229 323.305C56.5229 322.496 55.8681 321.841 55.0603 321.841C54.2525 321.841 53.5977 322.496 53.5977 323.305C53.5977 324.113 54.2525 324.769 55.0603 324.769Z" fill="#CCA414"/>
<path d="M511.691 316.134V344.485" stroke="#CCA414" stroke-width="2" stroke-miterlimit="10" stroke-linecap="round"/>
<path d="M519.007 327.424L511.691 336.922" stroke="#CCA414" stroke-width="2" stroke-miterlimit="10" stroke-linecap="round"/>
<path d="M511.693 313.363C515.733 313.363 519.009 310.084 519.009 306.04C519.009 301.996 515.733 298.718 511.693 298.718C507.652 298.718 504.377 301.996 504.377 306.04C504.377 310.084 507.652 313.363 511.693 313.363Z" fill="white"/>
<path d="M511.691 298.718V313.363" stroke="#CCA414" stroke-miterlimit="10" stroke-linecap="round"/>
<path d="M504.377 306.041H519.009" stroke="#CCA414" stroke-miterlimit="10" stroke-linecap="round"/>
<path d="M506.516 300.861L516.862 311.217" stroke="#CCA414" stroke-miterlimit="10" stroke-linecap="round"/>
<path d="M506.516 311.217L516.862 300.861" stroke="#CCA414" stroke-miterlimit="10" stroke-linecap="round"/>
<path d="M511.691 308.749C513.185 308.749 514.397 307.537 514.397 306.041C514.397 304.545 513.185 303.332 511.691 303.332C510.196 303.332 508.984 304.545 508.984 306.041C508.984 307.537 510.196 308.749 511.691 308.749Z" fill="white"/>
<path d="M511.689 307.504C512.497 307.504 513.152 306.849 513.152 306.04C513.152 305.232 512.497 304.576 511.689 304.576C510.881 304.576 510.227 305.232 510.227 306.04C510.227 306.849 510.881 307.504 511.689 307.504Z" fill="#CCA414"/>
<path d="M525.187 328.008C529.227 328.008 532.503 324.73 532.503 320.686C532.503 316.642 529.227 313.363 525.187 313.363C521.147 313.363 517.871 316.642 517.871 320.686C517.871 324.73 521.147 328.008 525.187 328.008Z" fill="white"/>
<path d="M525.186 313.363V328.008" stroke="#CCA414" stroke-miterlimit="10" stroke-linecap="round"/>
<path d="M517.871 320.686H532.503" stroke="#CCA414" stroke-miterlimit="10" stroke-linecap="round"/>
<path d="M520.012 315.506L530.358 325.862" stroke="#CCA414" stroke-miterlimit="10" stroke-linecap="round"/>
<path d="M520.012 325.862L530.358 315.506" stroke="#CCA414" stroke-miterlimit="10" stroke-linecap="round"/>
<path d="M525.187 323.394C526.681 323.394 527.893 322.181 527.893 320.685C527.893 319.189 526.681 317.977 525.187 317.977C523.692 317.977 522.48 319.189 522.48 320.685C522.48 322.181 523.692 323.394 525.187 323.394Z" fill="white"/>
<path d="M525.189 322.15C525.997 322.15 526.652 321.494 526.652 320.686C526.652 319.877 525.997 319.222 525.189 319.222C524.381 319.222 523.727 319.877 523.727 320.686C523.727 321.494 524.381 322.15 525.189 322.15Z" fill="#CCA414"/>
<path d="M586.78 345.075H524.203C524.203 338.172 532.546 332.576 542.842 332.576C546.25 332.55 549.63 333.205 552.783 334.503C555.037 331.223 558.28 328.752 562.038 327.449C565.796 326.147 569.872 326.081 573.67 327.262C577.468 328.443 580.789 330.809 583.147 334.014C585.506 337.219 586.779 341.095 586.78 345.075V345.075Z" fill="#8FCC14"/>
<path d="M358.075 137.796L301.316 137.547C294.171 137.517 290.456 129.015 295.279 123.746L298.253 120.499C299.6 118.386 300.223 115.891 300.028 113.392C299.833 110.893 298.83 108.525 297.172 106.647L295.55 104.793C293.353 102.303 292.187 99.0698 292.287 95.7498C292.388 92.4298 293.747 89.2727 296.09 86.9202V86.9202C298.01 84.9892 299.185 82.4406 299.408 79.7256C299.63 77.0106 298.886 74.3043 297.307 72.0858L297.169 71.891C293.906 67.309 292.151 61.8229 292.148 56.1961V51.7311C292.148 33.8714 309.273 21.0313 326.392 26.0239C335.538 28.7047 343.569 34.2808 349.281 41.9161C354.994 49.5514 358.079 58.8344 358.075 68.3732V137.796Z" fill="#333333"/>
<path d="M312.79 138.346C306.48 138.319 303.198 130.81 307.459 126.152L310.073 123.292C311.263 121.427 311.814 119.224 311.643 117.017C311.471 114.81 310.586 112.72 309.121 111.061L307.678 109.424C305.737 107.226 304.705 104.371 304.792 101.439C304.879 98.5073 306.078 95.7186 308.145 93.6396V93.6396" stroke="#59800D" stroke-miterlimit="10" stroke-linecap="round"/>
<path d="M314.637 123.292C315.827 121.426 316.378 119.223 316.206 117.017C316.035 114.81 315.15 112.719 313.686 111.061" stroke="#59800D" stroke-miterlimit="10" stroke-linecap="round"/>
<path d="M491.062 290.735V332.016H471.326C471.304 331.872 471.28 331.745 471.253 331.588L463.467 290.743L491.062 290.735Z" fill="#FFBA96"/>
<path d="M491.065 332.016V341.246C491.065 342.156 490.704 343.029 490.061 343.673C489.418 344.317 488.546 344.679 487.637 344.68H462.669C462.559 344.679 462.453 344.636 462.372 344.561C462.291 344.485 462.242 344.382 462.234 344.271C462.225 344.161 462.259 344.052 462.328 343.965C462.396 343.878 462.495 343.82 462.604 343.803L466.66 343.186C468.277 342.938 469.732 342.064 470.713 340.753C471.693 339.442 472.12 337.798 471.902 336.175L471.34 332.016H491.065Z" fill="#333333"/>
<path d="M462.199 344.883H491.063" stroke="#CCA414" stroke-width="2" stroke-miterlimit="10" stroke-linecap="round"/>
<path d="M471.399 337.698H469.349C468.807 337.698 468.286 337.482 467.902 337.098C467.518 336.714 467.303 336.193 467.303 335.65V335.65C467.302 335.381 467.355 335.114 467.458 334.865C467.56 334.616 467.711 334.39 467.901 334.2C468.091 334.009 468.317 333.858 468.566 333.755C468.814 333.652 469.08 333.599 469.349 333.599V333.599C469.893 333.599 470.414 333.815 470.798 334.199C471.183 334.584 471.399 335.106 471.399 335.65V337.698Z" stroke="#CCA414" stroke-miterlimit="10"/>
<path d="M471.527 337.698H473.577C474.119 337.698 474.64 337.482 475.024 337.098C475.408 336.714 475.623 336.193 475.623 335.65V335.65C475.624 335.381 475.571 335.114 475.468 334.865C475.366 334.616 475.215 334.39 475.025 334.2C474.835 334.009 474.609 333.858 474.36 333.755C474.112 333.652 473.846 333.599 473.577 333.599V333.599C473.033 333.599 472.512 333.815 472.128 334.199C471.743 334.584 471.527 335.106 471.527 335.65V337.698Z" stroke="#CCA414" stroke-miterlimit="10"/>
<path d="M463.465 290.735H491.063V297.481L463.465 290.735Z" fill="#333333"/>
<path d="M449.099 290.735L443.435 332.008H419.752L419.822 290.735H449.099Z" fill="#FFBA96"/>
<path d="M443.434 332.016L442.309 340.291C442.14 341.535 441.527 342.676 440.583 343.503C439.638 344.33 438.427 344.786 437.172 344.788H407.117C407.011 344.791 406.908 344.754 406.828 344.684C406.749 344.614 406.699 344.516 406.689 344.411C406.679 344.305 406.71 344.2 406.775 344.116C406.839 344.033 406.934 343.977 407.038 343.96L411.391 343.148C413.642 342.724 415.684 341.553 417.189 339.824C418.693 338.096 419.572 335.91 419.683 333.62L419.761 332.026L443.434 332.016Z" fill="#333333"/>
<path d="M406.531 344.883H442.056" stroke="#CCA414" stroke-width="2" stroke-miterlimit="10" stroke-linecap="round"/>
<path d="M416.747 333.609C417.29 333.609 417.811 333.825 418.196 334.21C418.58 334.595 418.796 335.117 418.796 335.661V337.698H416.747C416.203 337.698 415.682 337.482 415.297 337.097C414.913 336.713 414.697 336.191 414.697 335.647V335.647C414.701 335.105 414.918 334.587 415.302 334.205C415.686 333.824 416.205 333.609 416.747 333.609V333.609Z" stroke="#CCA414" stroke-miterlimit="10"/>
<path d="M418.928 337.698H420.974C421.243 337.699 421.51 337.646 421.758 337.543C422.007 337.44 422.233 337.29 422.423 337.099C422.614 336.909 422.765 336.683 422.868 336.434C422.971 336.186 423.024 335.919 423.024 335.65V335.65C423.024 335.106 422.808 334.584 422.423 334.199C422.039 333.815 421.518 333.599 420.974 333.599V333.599C420.705 333.599 420.439 333.652 420.191 333.755C419.942 333.858 419.716 334.009 419.526 334.2C419.336 334.39 419.185 334.616 419.083 334.865C418.98 335.114 418.927 335.381 418.928 335.65V337.698Z" stroke="#CCA414" stroke-miterlimit="10"/>
<path d="M419.752 290.735H449.099L448.399 295.831L419.752 290.735Z" fill="#333333"/>
<path d="M495.76 137.577V290.738H419.752L419.944 217.188V124.886C467.616 126.12 470.038 96.8623 470.038 96.8623L472.396 98.1504C479.468 102.017 485.37 107.719 489.481 114.656C493.592 121.594 495.761 129.511 495.76 137.577Z" fill="#CCA414"/>
<path d="M449.854 290.735V153.621" stroke="#333333" stroke-width="2" stroke-miterlimit="10"/>
<path d="M486 127.365C484.226 128.026 482.339 128.332 480.446 128.263C478.554 128.195 476.694 127.754 474.972 126.965C473.25 126.177 471.701 125.057 470.412 123.669C469.122 122.281 468.119 120.652 467.459 118.876" stroke="#333333" stroke-width="2" stroke-miterlimit="10"/>
<path d="M487.249 130.671C482.783 132.336 477.838 132.156 473.504 130.172C469.17 128.187 465.8 124.561 464.137 120.091" stroke="#333333" stroke-width="2" stroke-miterlimit="10"/>
<path d="M459.314 87.1446C463.384 90.0822 468.174 91.8592 473.173 92.2861C477.347 92.646 479.932 96.1232 479.932 99.6978C479.933 100.743 479.708 101.776 479.273 102.725C478.838 103.675 478.202 104.519 477.409 105.199C469.139 112.443 459.429 117.851 448.919 121.067V152.506H432.395L427.234 124.885C425.536 124.931 421.727 124.931 419.95 124.885L377.775 99.1783C377.404 98.9518 376.988 98.8083 376.556 98.7577C376.125 98.7072 375.687 98.7508 375.274 98.8855C374.861 99.0202 374.481 99.2429 374.162 99.5382C373.843 99.8335 373.591 100.194 373.425 100.596L343.245 173.394C343.035 173.902 342.634 174.308 342.129 174.524C341.624 174.741 341.054 174.751 340.541 174.552L327.945 169.681L350.539 69.3742C349.957 63.2448 351.419 57.0951 354.697 51.8852C356.29 48.4894 358.551 45.4504 361.346 42.9503C364.14 40.4502 367.41 38.5404 370.959 37.3354C374.509 36.1304 378.264 35.655 382.002 35.9376C385.739 36.2202 389.381 37.2551 392.709 38.9802L459.314 87.1446Z" fill="#CC1814"/>
<path d="M346.127 186.653V28.6543" stroke="#CCA414" stroke-miterlimit="10"/>
<path d="M338.432 186.653V28.6543" stroke="#CCA414" stroke-miterlimit="10"/>
<path d="M354.055 186.653V28.6543" stroke="#CCA414" stroke-miterlimit="10"/>
<path d="M361.984 186.653V28.6543" stroke="#CCA414" stroke-miterlimit="10"/>
<path d="M369.914 186.653V28.6543" stroke="#CCA414" stroke-miterlimit="10"/>
<path d="M377.844 186.653V28.6543" stroke="#CCA414" stroke-miterlimit="10"/>
<path d="M385.773 186.653V28.6543" stroke="#CCA414" stroke-miterlimit="10"/>
<path d="M393.699 186.653V28.6543" stroke="#CCA414" stroke-miterlimit="10"/>
<path d="M314.756 186.653V28.6543" stroke="#CCA414" stroke-miterlimit="10"/>
<path d="M322.682 186.653V28.6543" stroke="#CCA414" stroke-miterlimit="10"/>
<path d="M330.611 186.653V28.6543" stroke="#CCA414" stroke-miterlimit="10"/>
<path d="M401.405 97.5283H306.699" stroke="#CCA414" stroke-miterlimit="10"/>
<path d="M401.405 89.5908H306.699" stroke="#CCA414" stroke-miterlimit="10"/>
<path d="M401.405 81.6543H306.699" stroke="#CCA414" stroke-miterlimit="10"/>
<path d="M401.405 73.7207H306.699" stroke="#CCA414" stroke-miterlimit="10"/>
<path d="M401.405 65.7832H306.699" stroke="#CCA414" stroke-miterlimit="10"/>
<path d="M401.405 57.8467H306.699" stroke="#CCA414" stroke-miterlimit="10"/>
<path d="M401.405 49.9102H306.699" stroke="#CCA414" stroke-miterlimit="10"/>
<path d="M401.404 41.9736H307.146" stroke="#CCA414" stroke-miterlimit="10"/>
<path d="M401.405 34.0391H306.699" stroke="#CCA414" stroke-miterlimit="10"/>
<path d="M401.405 161.065H306.699" stroke="#CCA414" stroke-miterlimit="10"/>
<path d="M401.405 169.083H306.699" stroke="#CCA414" stroke-miterlimit="10"/>
<path d="M401.405 153.128H306.699" stroke="#CCA414" stroke-miterlimit="10"/>
<path d="M401.405 145.191H306.699" stroke="#CCA414" stroke-miterlimit="10"/>
<path d="M401.405 137.255H306.699" stroke="#CCA414" stroke-miterlimit="10"/>
<path d="M401.405 129.321H306.699" stroke="#CCA414" stroke-miterlimit="10"/>
<path d="M401.405 121.384H306.699" stroke="#CCA414" stroke-miterlimit="10"/>
<path d="M401.405 113.447H306.699" stroke="#CCA414" stroke-miterlimit="10"/>
<path d="M401.404 105.511H307.146" stroke="#CCA414" stroke-miterlimit="10"/>
<path d="M433.361 186.653V28.6543" stroke="#CCA414" stroke-miterlimit="10"/>
<path d="M425.668 186.653V28.6543" stroke="#CCA414" stroke-miterlimit="10"/>
<path d="M441.291 186.653V28.6543" stroke="#CCA414" stroke-miterlimit="10"/>
<path d="M449.221 186.653V28.6543" stroke="#CCA414" stroke-miterlimit="10"/>
<path d="M457.15 186.653V28.6543" stroke="#CCA414" stroke-miterlimit="10"/>
<path d="M465.076 186.653V28.6543" stroke="#CCA414" stroke-miterlimit="10"/>
<path d="M473.008 186.653V28.6543" stroke="#CCA414" stroke-miterlimit="10"/>
<path d="M480.936 186.653V28.6543" stroke="#CCA414" stroke-miterlimit="10"/>
<path d="M401.99 186.653V28.6543" stroke="#CCA414" stroke-miterlimit="10"/>
<path d="M409.918 186.653V28.6543" stroke="#CCA414" stroke-miterlimit="10"/>
<path d="M417.848 186.653V28.6543" stroke="#CCA414" stroke-miterlimit="10"/>
<path d="M488.642 97.5283H393.936" stroke="#CCA414" stroke-miterlimit="10"/>
<path d="M488.642 89.5908H393.936" stroke="#CCA414" stroke-miterlimit="10"/>
<path d="M488.642 81.6543H393.936" stroke="#CCA414" stroke-miterlimit="10"/>
<path d="M488.642 73.7197H393.936" stroke="#CCA414" stroke-miterlimit="10"/>
<path d="M488.642 65.7832H393.936" stroke="#CCA414" stroke-miterlimit="10"/>
<path d="M488.642 57.8467H393.936" stroke="#CCA414" stroke-miterlimit="10"/>
<path d="M488.642 49.9102H393.936" stroke="#CCA414" stroke-miterlimit="10"/>
<path d="M488.641 41.9736H394.381" stroke="#CCA414" stroke-miterlimit="10"/>
<path d="M488.642 34.0391H393.936" stroke="#CCA414" stroke-miterlimit="10"/>
<path d="M488.642 161.065H393.936" stroke="#CCA414" stroke-miterlimit="10"/>
<path d="M488.642 169.083H393.936" stroke="#CCA414" stroke-miterlimit="10"/>
<path d="M488.642 153.128H393.936" stroke="#CCA414" stroke-miterlimit="10"/>
<path d="M488.642 145.191H393.936" stroke="#CCA414" stroke-miterlimit="10"/>
<path d="M488.642 137.255H393.936" stroke="#CCA414" stroke-miterlimit="10"/>
<path d="M488.642 129.321H393.936" stroke="#CCA414" stroke-miterlimit="10"/>
<path d="M488.642 121.384H393.936" stroke="#CCA414" stroke-miterlimit="10"/>
<path d="M488.642 113.447H393.936" stroke="#CCA414" stroke-miterlimit="10"/>
<path d="M488.641 105.511H394.381" stroke="#CCA414" stroke-miterlimit="10"/>
<path d="M361.374 41.2837V59.433C361.373 60.824 360.851 62.1642 359.909 63.1874C358.968 64.2105 357.676 64.8418 356.291 64.956L351.66 65.3267L348.496 78.5023L342.378 71.6966C341.113 70.2814 340.629 67.6701 341.175 64.8585L347.991 44.1412C348.368 43.0209 349.11 42.0601 350.099 41.4136C351.088 40.7671 352.265 40.4725 353.441 40.5774L361.374 41.2837Z" fill="white"/>
<path d="M343.088 173.77L327.791 169.784L330.035 160.416H348.622L343.088 173.77Z" fill="white"/>
<path d="M432.391 153.751H448.912V144.751H431.188L432.391 153.751Z" fill="white"/>
<path d="M449.742 123.447V96.0509C449.742 92.8947 449.052 89.7768 447.721 86.9156C446.39 84.0544 444.45 81.5191 442.037 79.4873" stroke="#333333" stroke-miterlimit="10" stroke-linecap="round"/>
<path d="M395.668 71.6123L422.366 95.041L423.758 110.685" stroke="#333333" stroke-miterlimit="10" stroke-linecap="round"/>
<path d="M347.51 65.2671L356.21 65.3347C356.933 65.3408 357.65 65.2035 358.32 64.9307C358.99 64.6579 359.599 64.255 360.113 63.7453C360.626 63.2356 361.034 62.6292 361.312 61.961C361.59 61.2929 361.733 60.5762 361.733 59.8523V45.4238" stroke="#333333" stroke-miterlimit="10" stroke-linecap="round"/>
<path d="M381.705 97.9444C376.028 101.07 369.128 99.4354 366.295 94.2939" stroke="white" stroke-miterlimit="10" stroke-linecap="round"/>
<path d="M341.176 64.8528L331.419 61.9736L330.583 64.8691C330.263 65.9795 329.686 66.9993 328.901 67.8467C328.115 68.694 327.142 69.3453 326.06 69.7484C324.977 70.1514 323.816 70.295 322.668 70.1676C321.52 70.0402 320.418 69.6453 319.45 69.0147L316.746 67.2558L311.645 68.1217C311.474 68.1503 311.3 68.1451 311.132 68.1061C310.963 68.0672 310.804 67.9954 310.663 67.8949C310.523 67.7944 310.403 67.667 310.312 67.5202C310.221 67.3734 310.159 67.2099 310.131 67.0393L309.352 62.439L304.564 59.3217C302.637 58.0687 301.042 56.3679 299.914 54.3643C308.444 54.9407 317.279 51.4634 324.065 44.8418L327.334 50.952C331.63 58.9835 343.444 57.9552 346.291 49.3013L341.176 64.8528Z" fill="#FFBA96"/>
<path d="M312.331 61.4429C312.606 61.4402 312.874 61.356 313.101 61.2009C313.328 61.0459 313.504 60.8269 313.606 60.5718C313.709 60.3166 313.734 60.0367 313.678 59.7674C313.621 59.4981 313.487 59.2516 313.29 59.059C313.094 58.8664 312.845 58.7363 312.575 58.6853C312.305 58.6342 312.026 58.6645 311.773 58.7722C311.52 58.88 311.305 59.0603 311.155 59.2905C311.004 59.5207 310.925 59.7904 310.928 60.0655C310.93 60.2482 310.967 60.4287 311.039 60.5967C311.11 60.7648 311.214 60.9172 311.344 61.0451C311.475 61.173 311.629 61.2739 311.798 61.3422C311.967 61.4104 312.148 61.4446 312.331 61.4429V61.4429Z" fill="#333333"/>
<path d="M318.627 65.9307C318.627 66.5766 318.37 67.196 317.914 67.6528C317.458 68.1095 316.839 68.3661 316.193 68.3661" stroke="#333333" stroke-miterlimit="10" stroke-linecap="round"/>
<path d="M321.955 196.83C321.903 197.106 321.935 197.39 322.047 197.647C322.158 197.904 322.345 198.121 322.582 198.271C322.818 198.42 323.095 198.495 323.374 198.485C323.654 198.475 323.924 198.382 324.15 198.216L332.493 193.743C333.926 192.796 336.741 188.553 337.422 186.978L344.394 170.95L332.345 168.553C331.001 168.286 329.609 168.423 328.343 168.947C327.077 169.471 325.995 170.358 325.232 171.497L318.297 181.858C318.184 182.02 318.126 182.213 318.131 182.411C318.136 182.608 318.204 182.798 318.325 182.954C318.445 183.11 318.613 183.223 318.802 183.277C318.992 183.331 319.194 183.323 319.378 183.254L323.107 181.926C323.283 181.864 323.473 181.85 323.656 181.884C323.84 181.918 324.012 181.999 324.155 182.119C324.299 182.239 324.408 182.394 324.474 182.57C324.539 182.745 324.558 182.934 324.529 183.119L321.955 196.83Z" fill="#FFBA96"/>
<path d="M324.809 197.139L327.95 187.043" stroke="#333333" stroke-miterlimit="10" stroke-linecap="round"/>
<path d="M328.303 195.475L330.528 188.012" stroke="#333333" stroke-miterlimit="10" stroke-linecap="round"/>
<path d="M331.842 193.692L333.083 188.997" stroke="#333333" stroke-miterlimit="10" stroke-linecap="round"/>
<path d="M323.746 181.712L331.497 177.667" stroke="#333333" stroke-miterlimit="10" stroke-linecap="round"/>
<path d="M438.698 180.254C438.759 180.525 438.9 180.771 439.103 180.961C439.306 181.151 439.561 181.276 439.835 181.319C440.109 181.362 440.39 181.321 440.641 181.202C440.892 181.083 441.102 180.891 441.242 180.651L447.485 169.99C448.417 168.563 448.913 166.894 448.912 165.189V153.337H432.391L429.506 168.047C429.468 168.237 429.491 168.435 429.573 168.611C429.654 168.788 429.789 168.934 429.959 169.028C430.129 169.123 430.324 169.161 430.516 169.137C430.709 169.113 430.889 169.029 431.031 168.897L433.905 166.218C434.043 166.094 434.211 166.009 434.393 165.97C434.574 165.93 434.762 165.938 434.939 165.992C435.116 166.047 435.277 166.146 435.405 166.28C435.533 166.414 435.624 166.579 435.67 166.759L438.698 180.254Z" fill="#FFBA96"/>
<path d="M103.259 88.999C98.7125 91.8754 94.9669 95.8566 92.3712 100.572C89.7755 105.287 88.4142 110.583 88.4141 115.967V333.64C88.4148 336.622 89.5992 339.483 91.7068 341.592C93.8144 343.701 96.6726 344.886 99.6528 344.886H171.135C166.555 344.886 162.162 343.065 158.923 339.823C155.684 336.581 153.865 332.184 153.865 327.6V124.886L103.259 88.999Z" fill="#333333"/>
<path d="M171.703 344.789H124.085L123.729 339.985L153.927 328.146C154.212 332.416 156.021 336.44 159.024 339.485C162.026 342.53 166.023 344.393 170.284 344.734C170.76 344.77 171.228 344.789 171.703 344.789Z" fill="#0D4E80"/>
<path d="M90.2598 344.788H133.566C131.042 344.788 128.6 343.887 126.68 342.247C124.76 340.608 123.487 338.337 123.089 335.842L122.462 331.907L90.3841 339.985L90.2598 344.788Z" fill="#0D4E80"/>
<path d="M118.475 336.464L122.481 335.098" stroke="#333333" stroke-width="2" stroke-miterlimit="10" stroke-linecap="round"/>
<path d="M119.881 340.223L124.828 338.389" stroke="#333333" stroke-width="2" stroke-miterlimit="10" stroke-linecap="round"/>
<path d="M151.348 335.052L156.295 333.218" stroke="#333333" stroke-width="2" stroke-miterlimit="10" stroke-linecap="round"/>
<path d="M153.229 338.814L158.176 336.977" stroke="#333333" stroke-width="2" stroke-miterlimit="10" stroke-linecap="round"/>
<path d="M87.5312 120.048L122.702 333.667C123.217 336.799 124.827 339.646 127.245 341.701C129.663 343.755 132.732 344.883 135.904 344.883" stroke="white" stroke-width="2" stroke-miterlimit="10" stroke-linecap="round"/>
<path d="M170.297 344.788H88.4141" stroke="#333333" stroke-width="2" stroke-miterlimit="10" stroke-linecap="round"/>
<path d="M150.054 119.354H110.015C105.326 119.354 101.525 123.159 101.525 127.851V167.928C101.525 172.62 105.326 176.424 110.015 176.424H150.054C154.743 176.424 158.544 172.62 158.544 167.928V127.851C158.544 123.159 154.743 119.354 150.054 119.354Z" fill="#CC1814"/>
<path d="M113.773 260.888V102.889" stroke="#CCA414" stroke-miterlimit="10"/>
<path d="M106.078 260.888V102.889" stroke="#CCA414" stroke-miterlimit="10"/>
<path d="M121.703 260.888V102.889" stroke="#CCA414" stroke-miterlimit="10"/>
<path d="M129.633 260.888V102.889" stroke="#CCA414" stroke-miterlimit="10"/>
<path d="M137.561 260.888V102.889" stroke="#CCA414" stroke-miterlimit="10"/>
<path d="M145.49 260.888V102.889" stroke="#CCA414" stroke-miterlimit="10"/>
<path d="M153.42 260.888V102.889" stroke="#CCA414" stroke-miterlimit="10"/>
<path d="M161.348 260.888V102.889" stroke="#CCA414" stroke-miterlimit="10"/>
<path d="M82.4023 260.888V102.889" stroke="#CCA414" stroke-miterlimit="10"/>
<path d="M90.3301 260.888V102.889" stroke="#CCA414" stroke-miterlimit="10"/>
<path d="M98.2598 260.888V102.889" stroke="#CCA414" stroke-miterlimit="10"/>
<path d="M169.051 171.763H74.3477" stroke="#CCA414" stroke-miterlimit="10"/>
<path d="M169.051 163.825H74.3477" stroke="#CCA414" stroke-miterlimit="10"/>
<path d="M169.051 155.889H74.3477" stroke="#CCA414" stroke-miterlimit="10"/>
<path d="M169.051 147.952H74.3477" stroke="#CCA414" stroke-miterlimit="10"/>
<path d="M169.051 140.018H74.3477" stroke="#CCA414" stroke-miterlimit="10"/>
<path d="M169.051 132.081H74.3477" stroke="#CCA414" stroke-miterlimit="10"/>
<path d="M169.051 124.145H74.3477" stroke="#CCA414" stroke-miterlimit="10"/>
<path d="M169.052 116.208H74.7949" stroke="#CCA414" stroke-miterlimit="10"/>
<path d="M169.051 108.271H74.3477" stroke="#CCA414" stroke-miterlimit="10"/>
<path d="M169.051 235.3H74.3477" stroke="#CCA414" stroke-miterlimit="10"/>
<path d="M169.051 243.317H74.3477" stroke="#CCA414" stroke-miterlimit="10"/>
<path d="M169.051 227.363H74.3477" stroke="#CCA414" stroke-miterlimit="10"/>
<path d="M169.051 219.426H74.3477" stroke="#CCA414" stroke-miterlimit="10"/>
<path d="M169.051 211.489H74.3477" stroke="#CCA414" stroke-miterlimit="10"/>
<path d="M169.051 203.553H74.3477" stroke="#CCA414" stroke-miterlimit="10"/>
<path d="M169.051 195.618H74.3477" stroke="#CCA414" stroke-miterlimit="10"/>
<path d="M169.051 187.682H74.3477" stroke="#CCA414" stroke-miterlimit="10"/>
<path d="M169.052 179.745H74.7949" stroke="#CCA414" stroke-miterlimit="10"/>
<path d="M201.01 260.888V102.889" stroke="#CCA414" stroke-miterlimit="10"/>
<path d="M193.312 260.888V102.889" stroke="#CCA414" stroke-miterlimit="10"/>
<path d="M208.936 260.888V102.889" stroke="#CCA414" stroke-miterlimit="10"/>
<path d="M216.867 260.888V102.889" stroke="#CCA414" stroke-miterlimit="10"/>
<path d="M224.797 260.888V102.889" stroke="#CCA414" stroke-miterlimit="10"/>
<path d="M232.725 260.888V102.889" stroke="#CCA414" stroke-miterlimit="10"/>
<path d="M240.65 260.888V102.889" stroke="#CCA414" stroke-miterlimit="10"/>
<path d="M248.58 260.888V102.889" stroke="#CCA414" stroke-miterlimit="10"/>
<path d="M169.635 260.888V102.889" stroke="#CCA414" stroke-miterlimit="10"/>
<path d="M177.564 260.888V102.889" stroke="#CCA414" stroke-miterlimit="10"/>
<path d="M185.494 260.888V102.889" stroke="#CCA414" stroke-miterlimit="10"/>
<path d="M256.288 171.763H161.582" stroke="#CCA414" stroke-miterlimit="10"/>
<path d="M256.288 163.825H161.582" stroke="#CCA414" stroke-miterlimit="10"/>
<path d="M256.288 155.889H161.582" stroke="#CCA414" stroke-miterlimit="10"/>
<path d="M256.288 147.952H161.582" stroke="#CCA414" stroke-miterlimit="10"/>
<path d="M256.288 140.019H161.582" stroke="#CCA414" stroke-miterlimit="10"/>
<path d="M256.288 132.081H161.582" stroke="#CCA414" stroke-miterlimit="10"/>
<path d="M256.288 124.145H161.582" stroke="#CCA414" stroke-miterlimit="10"/>
<path d="M256.287 116.208H162.029" stroke="#CCA414" stroke-miterlimit="10"/>
<path d="M256.288 108.271H161.582" stroke="#CCA414" stroke-miterlimit="10"/>
<path d="M256.288 235.3H161.582" stroke="#CCA414" stroke-miterlimit="10"/>
<path d="M256.288 243.317H161.582" stroke="#CCA414" stroke-miterlimit="10"/>
<path d="M256.288 227.363H161.582" stroke="#CCA414" stroke-miterlimit="10"/>
<path d="M256.288 219.426H161.582" stroke="#CCA414" stroke-miterlimit="10"/>
<path d="M256.288 211.489H161.582" stroke="#CCA414" stroke-miterlimit="10"/>
<path d="M256.288 203.553H161.582" stroke="#CCA414" stroke-miterlimit="10"/>
<path d="M256.288 195.619H161.582" stroke="#CCA414" stroke-miterlimit="10"/>
<path d="M256.288 187.682H161.582" stroke="#CCA414" stroke-miterlimit="10"/>
<path d="M256.287 179.745H162.029" stroke="#CCA414" stroke-miterlimit="10"/>
<path d="M128.984 148.369H100.65" stroke="white" stroke-miterlimit="10" stroke-linecap="round"/>
<path d="M128.769 148.368H123.875C123.233 148.368 122.596 148.242 122.003 147.995C121.409 147.749 120.87 147.388 120.416 146.934C119.962 146.479 119.602 145.939 119.356 145.345C119.11 144.75 118.984 144.113 118.984 143.47V143.47C118.984 142.172 119.5 140.927 120.417 140.009C121.334 139.091 122.578 138.575 123.875 138.575C125.172 138.575 126.417 139.091 127.334 140.009C128.252 140.927 128.768 142.172 128.769 143.47V148.368Z" stroke="#73B4E5" stroke-width="2" stroke-miterlimit="10"/>
<path d="M128.984 148.369H133.878C134.52 148.369 135.157 148.243 135.75 147.996C136.344 147.75 136.883 147.389 137.337 146.935C137.791 146.48 138.151 145.94 138.397 145.346C138.643 144.751 138.769 144.114 138.769 143.471C138.769 142.173 138.253 140.928 137.336 140.01C136.419 139.092 135.175 138.576 133.878 138.576C133.235 138.576 132.599 138.702 132.005 138.948C131.412 139.194 130.872 139.554 130.418 140.009C129.963 140.464 129.603 141.003 129.357 141.597C129.111 142.192 128.984 142.828 128.984 143.471V148.369Z" stroke="#73B4E5" stroke-width="2" stroke-miterlimit="10"/>
<path d="M124.291 154.43L128.984 147.952L133.589 158.887" stroke="#73B4E5" stroke-width="2" stroke-miterlimit="10" stroke-linecap="round"/>
<path d="M129.633 160.511V177.794" stroke="white" stroke-miterlimit="10" stroke-linecap="round"/>
<path d="M129.633 118.584V135.034" stroke="white" stroke-miterlimit="10" stroke-linecap="round"/>
<path d="M232.101 62.937C232.106 67.6943 230.871 72.3706 228.516 76.5034C226.162 80.6361 222.771 84.0823 218.678 86.501L162.744 117.839C161.474 118.551 160.417 119.588 159.682 120.844C158.946 122.1 158.558 123.53 158.559 124.986V166.388L137.782 160.337L133.013 116.922C108.721 104.656 103.273 88.9986 103.273 88.9986L145.606 48.7953C164.831 30.5459 191.312 27.7208 211.668 35.966L214.642 37.4625C219.779 39.4521 224.196 42.9491 227.313 47.495C230.43 52.0409 232.102 57.4234 232.109 62.937H232.101Z" fill="#CCA414"/>
<path d="M148.63 188.233L140.963 181.739C140.321 181.192 139.914 180.419 139.826 179.58C139.738 178.74 139.975 177.899 140.49 177.231L141.695 175.675C142.513 174.617 142.971 173.324 143 171.987C143.03 170.649 142.63 169.337 141.86 168.244L139.054 164.242C135.81 159.642 138.175 156.819 144.339 155.266C146.951 154.608 150.59 154.544 153.959 156.251C157.436 158.015 158.825 159.877 158.825 163.779L159.417 169.984C159.542 171.289 159.209 172.598 158.474 173.683L148.63 188.233Z" fill="#FFBA96"/>
<path d="M151.667 176.891L145.928 185.561" stroke="#333333" stroke-width="2" stroke-miterlimit="10" stroke-linecap="round"/>
<path d="M148.562 174.347L142.822 183.017" stroke="#333333" stroke-width="2" stroke-miterlimit="10" stroke-linecap="round"/>
<path d="M197.557 63.0889L140.782 99.2684C134.264 103.425 132.131 109.57 132.479 117.918" stroke="#333333" stroke-width="2" stroke-miterlimit="10" stroke-linecap="round"/>
<path d="M191.924 62.3936L191.529 66.8179" stroke="#333333" stroke-width="2" stroke-miterlimit="10" stroke-linecap="round"/>
<path d="M201.297 32.4589L225.402 32.3507C227.158 32.3424 228.856 32.9845 230.168 34.1534C231.48 35.3223 232.314 36.9355 232.51 38.6828L235.229 60.174C235.373 61.306 235.271 62.4558 234.929 63.5445C234.588 64.6332 234.015 65.6352 233.25 66.4817L231.561 68.3516L231.179 63.9137C230.65 57.7467 228.402 51.8523 224.691 46.9007C220.98 41.949 215.956 38.139 210.189 35.9037L201.297 32.4589Z" fill="#0D4E80"/>
<path d="M137.607 150.758C137.607 150.758 147.267 144.036 157.73 151.172" stroke="#73B4E5" stroke-width="2" stroke-miterlimit="10" stroke-linecap="round"/>
<path d="M266.571 58.3147L266.657 58.2822L256.113 68.971C255.94 69.1456 255.732 69.2823 255.503 69.3724C255.275 69.4625 255.029 69.504 254.784 69.4944C254.538 69.4847 254.297 69.4241 254.076 69.3163C253.855 69.2085 253.658 69.0559 253.499 68.8682L250.998 65.8916C249.463 66.4915 247.815 66.7484 246.17 66.6443C244.526 66.5402 242.923 66.0776 241.476 65.2889C240.028 64.5001 238.77 63.4043 237.79 62.0781C236.81 60.7519 236.131 59.2274 235.801 57.6111L231.457 36.2985C231.164 34.8622 231.319 33.3708 231.899 32.0248C232.479 30.6789 233.457 29.5431 234.701 28.7704L242.16 25.1524C251.893 19.1315 264.311 23.2095 267.614 34.1662L270.561 43.943C271.321 46.4712 271.349 49.163 270.643 51.7066C269.937 54.2502 268.525 56.5414 266.571 58.3147V58.3147Z" fill="#FFBA96"/>
<path d="M255.111 60.3578C254.815 60.3318 254.534 60.2186 254.303 60.0325C254.072 59.8465 253.901 59.5959 253.813 59.3125C253.724 59.0292 253.721 58.7259 253.805 58.4411C253.889 58.1563 254.055 57.9028 254.283 57.7127C254.511 57.5226 254.79 57.4046 255.085 57.3735C255.38 57.3424 255.678 57.3997 255.94 57.5381C256.203 57.6765 256.418 57.8897 256.559 58.1509C256.7 58.412 256.761 58.7092 256.733 59.0048C256.697 59.3993 256.506 59.7633 256.201 60.0169C255.897 60.2705 255.505 60.3931 255.111 60.3578V60.3578Z" fill="#333333"/>
<path d="M259.979 53.7064L264.039 56.9126L263.597 57.4735C263.174 58.011 262.554 58.3581 261.875 58.4383C261.195 58.5185 260.512 58.3254 259.975 57.9013L255.585 54.4353L255.775 54.1952C256.265 53.5726 256.983 53.1706 257.77 53.0777C258.557 52.9847 259.348 53.2085 259.97 53.6997L259.979 53.7064Z" fill="#333333"/>
<path d="M240.395 32.2393C240.395 32.2393 241.344 36.485 237.664 37.6513" stroke="#333333" stroke-width="6.23" stroke-miterlimit="10" stroke-linecap="round"/>
<path d="M237.07 33.7168L240.274 35.059" stroke="#333333" stroke-width="6.23" stroke-miterlimit="10" stroke-linecap="round"/>
<path d="M274.641 56.8727C272.083 58.0552 266.744 51.9315 262.718 43.2019C261.857 41.3424 261.098 39.4372 260.444 37.4949L259.147 39.2024C257.751 41.0412 255.838 42.4207 253.653 43.1641C251.469 43.9076 249.112 43.981 246.886 43.3751L244.666 42.7716C243.215 43.7687 242.025 45.1006 241.197 46.6548C240.368 48.209 239.925 49.94 239.905 51.7015L239.857 56.0663L241.33 56.7158C245.519 58.5706 248.936 61.8222 250.998 65.9162L242.495 70.5652C241.812 70.9365 241.047 71.1337 240.27 71.1396C239.492 71.1455 238.724 70.9597 238.035 70.5988C237.346 70.2379 236.756 69.7128 236.318 69.0699C235.879 68.4269 235.605 67.6859 235.52 66.9121L233.006 43.9704L241.079 40.2361C242.568 39.5482 243.739 38.3156 244.349 36.7914C244.959 35.2671 244.964 33.5669 244.361 32.0396L244.309 31.9043C243.758 30.5096 242.745 29.3462 241.441 28.6077C240.136 27.8691 238.618 27.6001 237.14 27.8452C237.118 27.7884 237.102 27.7397 237.088 27.7018L243.55 24.0839C248.354 21.8081 252.528 21.0694 256.019 21.6241L255.37 20.1818C255.289 19.9798 255.289 19.7542 255.37 19.5522C255.451 19.3502 255.606 19.1873 255.805 19.0975C256.003 19.0078 256.228 18.9981 256.433 19.0706C256.638 19.143 256.807 19.292 256.905 19.4863L257.649 21.1397L258.968 19.324C259.107 19.1679 259.299 19.0692 259.507 19.0471C259.715 19.0249 259.923 19.0809 260.092 19.2042C260.26 19.3274 260.377 19.5091 260.419 19.7138C260.462 19.9185 260.426 20.1316 260.32 20.3117L258.809 22.3953C261.366 23.4398 262.918 24.7739 265.057 27.4637C267.276 30.1481 269.828 34.2531 271.981 38.921C276.02 47.6533 277.209 55.6902 274.641 56.8727Z" fill="#333333"/>
<path d="M246.525 68.3248C246.525 68.3248 245.173 65.8894 245.827 63.2158" stroke="#FFBA96" stroke-width="3.85" stroke-linejoin="round"/>
<path fill-rule="evenodd" clip-rule="evenodd" d="M265.927 284.481C270.504 273.512 285.316 254.465 307.946 266.032C307.946 266.032 309.901 264.192 310.186 263.782L315.662 285.931L293.788 279.639L296.527 276.927C292.45 273.136 280.622 269.339 265.927 284.481ZM250.421 306.908C252.29 332.274 276.242 335.062 287.985 333.284C267.428 328.57 264.531 316.48 265.652 311.024L269.39 311.959L263.41 289.979L247.338 306.16C247.836 306.191 250.421 306.908 250.421 306.908ZM315.203 335.807C336.35 321.705 326.996 299.458 319.676 290.097C325.684 310.333 316.591 318.803 311.293 320.509L310.269 316.791L294.089 332.812L316.068 338.863C315.851 338.413 315.203 335.807 315.203 335.807Z" fill="#CBE595"/>
<ellipse cx="290.041" cy="299.987" rx="2.42948" ry="2.43183" fill="#CBE595"/>
<path d="M294.895 305.505C295.194 303.41 292.59 303.572 291.251 303.915C291.625 303.354 294.471 301.203 297.325 302.7C299.287 303.728 298.82 310.089 291.905 314.485C289.289 316.075 284.617 319.909 274.992 319.535L274.899 309.901C274.899 304.196 275.74 304.851 270.881 302.419V299.707L290.317 284.835V291.663L274.899 301.577C277.814 301.652 279.291 303.541 279.664 304.851C280.038 306.16 279.664 316.075 279.664 316.075C289.756 314.952 294.522 308.124 294.895 305.505Z" fill="#CBE595"/>
<path d="M305.736 301.577C302.821 301.652 300.877 303.822 300.877 305.412C300.877 305.412 300.693 308.631 300.872 315.981C300.877 316.168 298.448 315.7 297.326 315.326L294.43 314.297C294.43 314.297 294.149 314.578 292 316.542C296.485 318.787 299.475 319.722 305.736 319.722V309.901C305.736 304.196 304.895 304.851 309.754 302.419V299.707L290.318 284.835V291.663L305.736 301.577Z" fill="#CBE595"/>
<path d="M285.37 306.754C284.944 305.818 284.061 303.199 288.64 304.041C288.079 303.293 285.183 301.297 282.379 302.745C281.744 303.073 280.23 305.351 283.311 310.263L284.525 311.759L285.273 312.508L285.647 312.882L288.263 310.824C287.889 310.45 286.271 308.735 285.37 306.754Z" fill="#CBE595"/>
</svg>
