<svg width="218" height="218" viewBox="0 0 218 218" fill="none" xmlns="http://www.w3.org/2000/svg">
<path d="M193.778 24.2222V193.778H24.2222V24.2222H193.778ZM193.778 0H24.2222C10.7789 0 0 10.9 0 24.2222V193.778C0 207.1 10.7789 218 24.2222 218H193.778C207.1 218 218 207.1 218 193.778V24.2222C218 10.9 207.1 0 193.778 0ZM109 109C89.0167 109 72.6667 92.65 72.6667 72.6667C72.6667 52.6833 89.0167 36.3333 109 36.3333C128.983 36.3333 145.333 52.6833 145.333 72.6667C145.333 92.65 128.983 109 109 109ZM109 60.5556C102.339 60.5556 96.8889 66.0056 96.8889 72.6667C96.8889 79.3278 102.339 84.7778 109 84.7778C115.661 84.7778 121.111 79.3278 121.111 72.6667C121.111 66.0056 115.661 60.5556 109 60.5556ZM181.667 181.667H36.3333V163.137C36.3333 132.859 84.4144 119.779 109 119.779C133.586 119.779 181.667 132.859 181.667 163.137V181.667ZM64.31 157.444H153.69C145.333 150.662 124.866 143.88 109 143.88C93.1344 143.88 72.5456 150.662 64.31 157.444Z" fill="#B3B3B3"/>
</svg>
