<svg width="210" height="215" viewBox="0 0 210 215" fill="none" xmlns="http://www.w3.org/2000/svg">
<path d="M38.1254 77.7824L86.737 99.9378L92.1582 79.2678C89.3505 79.5367 86.5178 79.2058 83.8476 78.2973L47.4269 65.9916C46.5287 65.6887 45.6676 65.2854 44.8598 64.7896L38.1254 77.7824Z" fill="#FFBA96"/>
<path d="M38.8183 54.3267C38.8859 56.9188 39.7475 59.4277 41.2867 61.5145C42.826 63.6012 44.9686 65.1653 47.4252 65.9952L83.8459 78.2972C86.5158 79.207 89.3486 79.5391 92.1565 79.2714C100.893 78.4306 108.481 71.8313 109.991 62.6021L116.323 61.9983C116.955 61.9384 117.564 61.7379 118.108 61.4114C118.651 61.0849 119.115 60.6408 119.464 60.1118C119.813 59.5827 120.04 58.982 120.126 58.354C120.213 57.726 120.158 57.0865 119.965 56.4826L112.556 33.3307C111.831 28.458 109.664 23.9139 106.335 20.283C103.005 16.6522 98.6652 14.1007 93.8735 12.957L76.3169 8.76928C56.6434 4.07593 39.3554 19.4506 39.8981 39.6687L38.8183 54.3267Z" fill="#FFBA96"/>
<path d="M49.1747 48.687C49.1747 48.687 56.2296 50.2428 55.0109 57.6718" stroke="#212121" stroke-width="2" stroke-miterlimit="10" stroke-linecap="round"/>
<path d="M48.476 55.0826L53.373 51.3765" stroke="#212121" stroke-width="2" stroke-miterlimit="10" stroke-linecap="round"/>
<path d="M106.223 49.6094C106.223 49.6094 104.832 46.796 98.9104 49.9798" stroke="#212121" stroke-width="2" stroke-miterlimit="10" stroke-linecap="round"/>
<path d="M96.8982 44.5247L106.609 42.767C107.799 42.5515 108.855 41.8719 109.545 40.8777C110.234 39.8835 110.501 38.6561 110.285 37.4656L110.059 36.2153L101.055 37.845C99.6763 38.0947 98.453 38.8819 97.6543 40.0335C96.8557 41.1852 96.5473 42.6069 96.7969 43.9859L96.8935 44.5199L96.8982 44.5247Z" fill="#212121"/>
<path d="M38.9693 51.9263C39.4778 48.9294 41.1432 46.2522 43.6067 44.4715C46.0703 42.6908 49.1348 41.9491 52.1399 42.4063L52.3937 42.4452C55.2624 42.8817 57.8554 44.3993 59.6408 46.6868C61.4262 48.9744 62.2686 51.8583 61.9952 54.7472L60.8432 66.9362C60.8592 68.8701 61.4321 70.7585 62.4934 72.3752C63.5547 73.992 65.0595 75.2687 66.8275 76.0525L97.8029 89.7899C99.0599 90.3469 100.435 90.5864 101.806 90.4875C103.177 90.3885 104.503 89.954 105.667 89.2223C106.831 88.4905 107.798 87.4839 108.481 86.291C109.165 85.0982 109.545 83.7555 109.588 82.3813L110.051 62.4058C109.346 62.3632 108.644 62.3428 107.94 62.3428C100.559 62.344 93.3683 64.6777 87.3938 69.0106L85.0879 70.6775L74.4917 66.7232C67.8425 63.2726 68.4944 57.7958 68.9001 51.6337H68.9408L71.9691 48.648C74.8758 45.7837 76.8606 42.1165 77.6691 38.1166C78.4776 34.1167 78.0729 29.9665 76.5069 26.1981L75.9086 24.7553C78.2772 26.5462 81.1006 27.6371 84.0581 27.9039C87.9254 28.2984 91.8013 27.2423 94.9339 24.9405C97.242 26.6034 99.954 27.6165 102.787 27.8743C111.083 28.6615 118.399 23.0791 119.129 15.4056C119.858 7.73215 113.724 0.869928 105.423 0.0809117C101.555 -0.313374 97.6795 0.742724 94.5468 3.04435C92.2387 1.38146 89.5267 0.368298 86.6937 0.110541C82.2115 -0.315454 78.0127 1.11997 74.9862 3.74076C72.505 1.65098 69.4416 0.374028 66.2107 0.08276C58.5095 -0.658101 51.6528 4.10934 50.1248 10.9327L46.8965 5.02986C46.7626 4.80838 46.5484 4.64715 46.2985 4.57983C46.0486 4.51251 45.7824 4.5443 45.5554 4.66856C45.3284 4.79282 45.1581 4.99995 45.0801 5.24672C45.0022 5.4935 45.0226 5.76085 45.137 5.99298L48.782 12.6607C45.9828 13.9623 43.6079 16.0276 41.9303 18.619C40.2527 21.2104 39.3406 24.2227 39.299 27.3094L38.9693 51.9263Z" fill="#212121"/>
<path d="M109.846 71.546C109.846 71.546 105.749 71.4608 102.272 68.0732" stroke="white" stroke-width="2" stroke-linejoin="round"/>
<path d="M26.7372 214.269L110.516 214.26L104.631 164.584C104.091 162.137 102.803 160.192 100.384 159.535L98.0358 158.896C99.3126 158.409 100.412 157.547 101.188 156.423C101.963 155.298 102.38 153.964 102.381 152.598C102.381 152.106 102.327 151.616 102.222 151.135L94.2259 115.018C93.5727 112.011 91.8856 109.329 89.4585 107.437C89.0121 102.781 86.5821 97.7542 82.7908 95.0575L44.3419 68.3235C40.0135 65.2415 34.8274 66.5269 32.1177 71.1017L26.652 88.4972C22.73 90.6159 19.3441 93.603 16.7529 97.2304C14.1618 100.858 12.434 105.029 11.7015 109.426L0.403343 181.931C-1.87851 195.909 12.5905 214.271 26.7372 214.269Z" fill="#59800D"/>
<path d="M54.3301 87.9417C36.5698 78.2401 14.2569 88.9159 10.8656 108.871" stroke="white" stroke-width="4" stroke-linejoin="round"/>
<path d="M75.3639 134.999H91.4813C93.211 134.999 94.6133 136.401 94.6133 138.131V147.16C94.6133 148.89 93.211 150.292 91.4813 150.292H75.3639C73.6341 150.292 72.2319 148.89 72.2319 147.16V138.131C72.2319 136.401 73.6341 134.999 75.3639 134.999Z" fill="white"/>
<path d="M84.3145 131.977V137.709" stroke="#212121" stroke-width="8.12" stroke-miterlimit="10"/>
<path d="M77.6852 140.061H90.7559V142.363H77.6852V140.061Z" fill="#CC1814"/>
<path d="M83.4244 143.769H90.8516V146.071H83.4244V143.769Z" fill="#CC1814"/>
<path d="M100.67 158.683H91.9704" stroke="white" stroke-width="4" stroke-linecap="round" stroke-linejoin="round"/>
<path d="M28.5585 214.281H140.951L141.803 184.329L59.7098 169.883L67.5722 130.823C68.35 127.059 68.2803 123.169 67.3685 119.436C66.4567 115.702 64.7254 112.218 62.3002 109.237C59.8751 106.255 56.8169 103.85 53.3473 102.197C49.8776 100.544 46.0836 99.6838 42.2403 99.6787C30.9626 99.6787 20.4479 107.124 17.2733 118.747L1.14293 178.49C-3.73007 196.53 9.86472 214.281 28.5585 214.281Z" fill="#E2F2C2"/>
<path d="M46.847 169.021L57.9766 169.077L50.642 164.454" stroke="#212121" stroke-width="4" stroke-miterlimit="10" stroke-linecap="round"/>
<path d="M180.973 213.897C183.53 213.883 185.988 212.904 187.855 211.158C194.675 204.787 205.564 195.357 208.549 192.414C208.656 192.309 208.739 192.182 208.792 192.041C208.844 191.9 208.866 191.75 208.854 191.601C208.843 191.451 208.799 191.305 208.726 191.174C208.653 191.043 208.552 190.93 208.431 190.842L208.374 190.799C207.178 189.931 205.718 189.503 204.243 189.588C204.654 189.071 205.016 188.621 205.316 188.251C205.41 188.134 205.478 187.998 205.515 187.853C205.551 187.707 205.556 187.555 205.528 187.408C205.5 187.261 205.44 187.121 205.352 186.999C205.265 186.877 205.152 186.776 205.021 186.702L204.96 186.667C203.864 186.045 202.608 185.76 201.351 185.847C200.093 185.935 198.89 186.391 197.89 187.16L186.301 195.563C185.659 196.058 184.851 196.29 184.044 196.211L167.93 194.359C167.802 194.346 167.683 194.287 167.595 194.193C167.508 194.098 167.457 193.976 167.454 193.847C167.45 193.718 167.494 193.593 167.576 193.494C167.658 193.395 167.773 193.329 167.9 193.309C171.28 192.742 176.07 191.607 179.265 191.036C180.288 190.852 181.241 190.395 182.024 189.712C182.807 189.029 183.39 188.146 183.71 187.158L184.034 185.191L163.681 181.777C156.917 180.701 147.127 178.999 141.798 184.32C139.41 186.206 136.612 191.881 136.288 198.636C136.038 203.846 136.917 208.5 138.466 211.34C139.427 213.101 140.644 214.164 142.007 214.229H142.022L180.973 213.897Z" fill="#FFBA96"/>
<path d="M204.783 188.236C204.55 188.048 204.281 187.908 203.994 187.823C203.706 187.739 203.405 187.712 203.107 187.745C202.809 187.777 202.52 187.868 202.257 188.011C201.994 188.155 201.762 188.349 201.574 188.583C201.386 188.816 201.246 189.085 201.162 189.372C201.078 189.66 201.051 189.961 201.083 190.259C201.116 190.557 201.206 190.846 201.35 191.109C201.494 191.372 201.688 191.604 201.922 191.792" stroke="#56303C" stroke-width="2" stroke-miterlimit="10" stroke-linecap="round"/>
<path d="M178.994 184.809C178.899 185.407 179.046 186.018 179.402 186.507C179.758 186.997 180.294 187.325 180.891 187.42C181.489 187.514 182.1 187.367 182.59 187.012C183.079 186.656 183.407 186.12 183.502 185.522" stroke="#56303C" stroke-width="2" stroke-miterlimit="10" stroke-linecap="round"/>
<path d="M208.045 192.175C207.616 191.763 207.044 191.534 206.449 191.538C205.854 191.541 205.284 191.776 204.86 192.194C204.436 192.611 204.192 193.177 204.179 193.771C204.166 194.366 204.385 194.942 204.791 195.377" stroke="#56303C" stroke-width="2" stroke-miterlimit="10" stroke-linecap="round"/>
<path d="M201.922 191.792L191.711 205.498" stroke="#56303C" stroke-width="2" stroke-miterlimit="10" stroke-linecap="round"/>
<path fill-rule="evenodd" clip-rule="evenodd" d="M148.147 130.054C152.436 120.091 166.315 102.791 187.521 113.297C187.521 113.297 189.352 111.626 189.619 111.253L194.75 131.371L174.254 125.656L176.82 123.193C173 119.749 161.917 116.301 148.147 130.054ZM133.618 150.424C135.369 173.463 157.813 175.994 168.816 174.38C149.553 170.099 146.839 159.117 147.89 154.162L151.392 155.011L145.788 135.048L130.729 149.744C131.195 149.773 133.618 150.424 133.618 150.424ZM194.32 176.672C214.135 163.863 205.37 143.657 198.511 135.155C204.141 153.534 195.621 161.227 190.657 162.776L189.697 159.4L174.536 173.951L195.131 179.447C194.927 179.038 194.32 176.672 194.32 176.672Z" fill="#8FCC14"/>
<ellipse cx="170.743" cy="144.137" rx="2.2765" ry="2.20874" fill="#CC1814"/>
<path d="M175.291 149.15C175.572 147.247 173.132 147.394 171.877 147.706C172.227 147.196 174.893 145.242 177.568 146.601C179.407 147.536 178.969 153.312 172.49 157.305C170.038 158.749 165.66 162.232 156.642 161.892L156.554 153.142C156.554 147.96 157.342 148.555 152.789 146.346V143.883L171.001 130.375V136.577L156.554 145.582C159.286 145.65 160.669 147.366 161.019 148.555C161.37 149.744 161.019 158.749 161.019 158.749C170.476 157.73 174.941 151.528 175.291 149.15Z" fill="#8FCC14"/>
<path d="M185.45 145.582C182.718 145.65 180.897 147.621 180.897 149.065C180.897 149.065 180.725 151.989 180.893 158.664C180.897 158.834 178.62 158.409 177.57 158.07L174.855 157.135C174.855 157.135 174.593 157.39 172.579 159.174C176.782 161.213 179.584 162.062 185.45 162.062V153.142C185.45 147.96 184.662 148.555 189.215 146.346V143.883L171.003 130.375V136.577L185.45 145.582Z" fill="#CC1814"/>
<path d="M166.366 150.284C165.968 149.434 165.141 147.055 169.431 147.82C168.906 147.14 166.191 145.328 163.565 146.643C162.969 146.941 161.551 149.009 164.437 153.471L165.575 154.83L166.276 155.51L166.626 155.849L169.078 153.981C168.728 153.641 167.211 152.083 166.366 150.284Z" fill="#CC1814"/>
</svg>
