<svg width="53" height="76" viewBox="0 0 53 76" fill="none" xmlns="http://www.w3.org/2000/svg">
<path d="M12.2699 76V39.7385C9.11099 39.4154 6.43023 38.0629 4.22763 35.6808C2.02509 33.2987 0.923828 30.3795 0.923828 26.9231V0H4.00073V26.9231H12.2699V0H15.3469V26.9231H23.5392V0H26.6161V26.9231C26.6161 30.3795 25.5149 33.2987 23.3123 35.6808C21.1097 38.0629 18.4546 39.4154 15.3469 39.7385V76H12.2699ZM49.8469 76V44H40.2699V16.8077C40.2699 12.5154 41.3571 8.80767 43.5315 5.6846C45.7059 2.56153 48.8366 0.717933 52.9238 0.153799V76H49.8469Z" fill="#83B224"/>
</svg>
