<svg width="52" height="52" viewBox="0 0 52 52" fill="none" xmlns="http://www.w3.org/2000/svg">
<path d="M6.25047 42.25C5.85325 42.25 5.59074 42.0625 5.46294 41.6875C5.33518 41.3125 5.43934 40.9972 5.77543 40.7417L25.1671 25.8542V21.9166C25.1671 21.6778 25.2442 21.4792 25.3984 21.3208C25.5525 21.1625 25.7352 21.0833 25.9463 21.0833C27.3129 21.1195 28.4692 20.6646 29.415 19.7187C30.3609 18.7729 30.8338 17.6167 30.8338 16.25C30.8338 14.9195 30.3609 13.7813 29.415 12.8354C28.4692 11.8896 27.331 11.4167 26.0005 11.4167C24.6699 11.4167 23.5317 11.8896 22.5859 12.8354C21.64 13.7813 21.1671 14.9195 21.1671 16.25H19.5005C19.5005 14.4333 20.1296 12.8958 21.3879 11.6375C22.6463 10.3792 24.1838 9.75 26.0005 9.75C27.8171 9.75 29.3546 10.3681 30.613 11.6042C31.8713 12.8403 32.5005 14.3528 32.5005 16.1417C32.5005 17.7722 31.9616 19.2042 30.8838 20.4375C29.806 21.6709 28.456 22.4292 26.8338 22.7125V25.8542L46.2255 40.7417C46.5616 40.9972 46.6657 41.3125 46.538 41.6875C46.4102 42.0625 46.1477 42.25 45.7504 42.25H6.25047ZM8.75048 40.5833H43.2504L26.0005 27.2958L8.75048 40.5833Z" fill="#83B224"/>
</svg>
