<svg width="52" height="52" viewBox="0 0 52 52" fill="none" xmlns="http://www.w3.org/2000/svg">
<path d="M25.1375 44.4168V40.0752C23.2181 39.8807 21.6063 39.262 20.3021 38.2189C18.9979 37.1758 18.043 35.8168 17.4375 34.1418L18.9708 33.4377C19.6403 35.0599 20.5458 36.2953 21.6875 37.1439C22.8292 37.9925 24.2958 38.4168 26.0875 38.4168C27.8486 38.4168 29.4347 37.9627 30.8459 37.0543C32.2569 36.146 32.9625 34.7529 32.9625 32.8752C32.9625 31.1752 32.4173 29.8293 31.3271 28.8377C30.2368 27.846 28.3472 26.9127 25.6583 26.0376C23.0861 25.2071 21.2007 24.2168 20.0021 23.0668C18.8035 21.9168 18.2042 20.396 18.2042 18.5043C18.2042 16.6571 18.9215 15.121 20.3563 13.896C21.791 12.671 23.3847 12.0238 25.1375 11.9543V7.5835H26.8042V11.9543C28.2347 12.0516 29.4882 12.4036 30.5646 13.0106C31.641 13.6175 32.5417 14.5238 33.2667 15.7294L31.8167 16.5293C31.2556 15.596 30.509 14.8537 29.5771 14.3023C28.6451 13.7509 27.4792 13.4752 26.0792 13.4752C24.3903 13.4752 22.9333 13.9238 21.7083 14.821C20.4833 15.7182 19.8708 16.9419 19.8708 18.4918C19.8708 19.8918 20.3431 21.0509 21.2875 21.9689C22.232 22.887 24.1806 23.8113 27.1333 24.7418C29.7556 25.6113 31.6604 26.662 32.8479 27.8939C34.0354 29.1258 34.6292 30.7557 34.6292 32.7835C34.6292 34.8363 33.9056 36.5161 32.4584 37.8231C31.0111 39.13 29.1264 39.871 26.8042 40.046V44.4168H25.1375Z" fill="#147DCC"/>
</svg>
