<svg width="96" height="96" viewBox="0 0 96 96" fill="none" xmlns="http://www.w3.org/2000/svg">
<path d="M38.4926 38.7999L46.0849 26.4076L41.0311 18.0691C40.3849 16.9409 39.4144 16.3768 38.1195 16.3768C36.8247 16.3768 35.8416 16.9426 35.1702 18.0741L26.9464 31.9076L38.4926 38.7999ZM71.2588 61.8461L63.7542 49.3537L75.5003 42.5845L80.9003 51.5922C81.4799 52.5717 81.8158 53.6589 81.908 54.8538C82.0004 56.0487 81.7645 57.1436 81.2003 58.1384C80.6363 59.3179 79.794 60.2307 78.6734 60.8768C77.5529 61.523 76.3462 61.8461 75.0532 61.8461H71.2588ZM61.5388 85.5384L48.0003 71.9999L61.5388 58.4614V65.2307H77.6157L72.708 75.0461C72.0875 76.1743 71.2414 77.0769 70.1696 77.7538C69.0978 78.4308 67.9132 78.7692 66.6157 78.7692H61.5388V85.5384ZM28.7655 78.7692C27.6349 78.7692 26.6093 78.4833 25.6887 77.9115C24.7683 77.3397 24.0926 76.5664 23.6618 75.5915C23.2311 74.6741 23.0196 73.7217 23.0272 72.7345C23.0349 71.7474 23.2926 70.8297 23.8003 69.9813L26.6772 65.2307H41.2311V78.7692H28.7655ZM20.4003 69.1384L14.9003 58.1384C14.3516 57.0922 14.1067 55.9884 14.1656 54.8268C14.2246 53.6653 14.5581 52.5871 15.1661 51.5922L16.4926 49.3537L10.7695 45.8691L29.2849 41.2153L33.9387 59.8307L28.1157 56.2461L20.4003 69.1384ZM66.0926 40.1691L47.5618 35.5181L53.4003 32.0509L42.8234 14.4614H54.7542C55.9388 14.4614 57.0529 14.7562 58.0965 15.3457C59.1401 15.9353 59.9722 16.7354 60.5926 17.746L65.0234 25.1383L70.7465 21.5537L66.0926 40.1691Z" fill="#CC1814"/>
</svg>
