<svg width="96" height="96" viewBox="0 0 96 96" fill="none" xmlns="http://www.w3.org/2000/svg">
<path d="M63.3154 65.6077L65.5846 63.3385L49.6846 47.3366V27.3923H46.6077V48.6615L63.3154 65.6077ZM48.0134 84C43.0506 84 38.3908 83.0554 34.034 81.1661C29.6771 79.2768 25.8611 76.696 22.5859 73.4239C19.3108 70.1518 16.7277 66.3393 14.8366 61.9866C12.9455 57.6339 12 52.9761 12 48.0134C12 43.0506 12.9446 38.3908 14.8339 34.034C16.7232 29.6771 19.304 25.8611 22.5761 22.5859C25.8482 19.3108 29.6607 16.7277 34.0134 14.8366C38.3661 12.9455 43.0239 12 47.9866 12C52.9494 12 57.6092 12.9446 61.966 14.8339C66.3229 16.7232 70.1389 19.304 73.4141 22.5761C76.6892 25.8482 79.2723 29.6607 81.1634 34.0134C83.0545 38.3661 84 43.0239 84 47.9866C84 52.9494 83.0554 57.6092 81.1661 61.966C79.2768 66.3229 76.696 70.1389 73.4239 73.4141C70.1518 76.6892 66.3393 79.2723 61.9866 81.1634C57.6339 83.0545 52.9761 84 48.0134 84ZM48 80.9231C57.0769 80.9231 64.8333 77.7051 71.2692 71.2692C77.7051 64.8333 80.9231 57.0769 80.9231 48C80.9231 38.9231 77.7051 31.1667 71.2692 24.7308C64.8333 18.2949 57.0769 15.0769 48 15.0769C38.9231 15.0769 31.1667 18.2949 24.7308 24.7308C18.2949 31.1667 15.0769 38.9231 15.0769 48C15.0769 57.0769 18.2949 64.8333 24.7308 71.2692C31.1667 77.7051 38.9231 80.9231 48 80.9231Z" fill="#147DCC"/>
</svg>
